<?xml version="1.0" encoding="UTF-8"?>
<svg version="1.1" xmlns="http://www.w3.org/2000/svg" width="270" height="290">
<path d="M0 0 C23.1 0 46.2 0 70 0 C70 3.3 70 6.6 70 10 C79.9 10 89.8 10 100 10 C100 13.3 100 16.6 100 20 C103.3 20 106.6 20 110 20 C110 23.3 110 26.6 110 30 C116.6 30 123.2 30 130 30 C130 33.3 130 36.6 130 40 C133.3 40 136.6 40 140 40 C140 43.3 140 46.6 140 50 C143.3 50 146.6 50 150 50 C150 56.6 150 63.2 150 70 C153.3 70 156.6 70 160 70 C160 79.9 160 89.8 160 100 C163.3 100 166.6 100 170 100 C170 123.1 170 146.2 170 170 C166.7 170 163.4 170 160 170 C160 179.9 160 189.8 160 200 C156.7 200 153.4 200 150 200 C150 203.3 150 206.6 150 210 C146.7 210 143.4 210 140 210 C140 206.7 140 203.4 140 200 C136.7 200 133.4 200 130 200 C130 196.7 130 193.4 130 190 C126.7 190 123.4 190 120 190 C120 186.7 120 183.4 120 180 C116.7 180 113.4 180 110 180 C110 176.7 110 173.4 110 170 C106.7 170 103.4 170 100 170 C100 166.7 100 163.4 100 160 C96.7 160 93.4 160 90 160 C90 156.7 90 153.4 90 150 C86.7 150 83.4 150 80 150 C80 146.7 80 143.4 80 140 C76.7 140 73.4 140 70 140 C70 136.7 70 133.4 70 130 C66.7 130 63.4 130 60 130 C60 126.7 60 123.4 60 120 C56.7 120 53.4 120 50 120 C50 116.7 50 113.4 50 110 C46.7 110 43.4 110 40 110 C40 106.7 40 103.4 40 100 C36.7 100 33.4 100 30 100 C30 116.5 30 133 30 150 C26.7 150 23.4 150 20 150 C20 146.7 20 143.4 20 140 C16.7 140 13.4 140 10 140 C10 136.7 10 133.4 10 130 C6.7 130 3.4 130 0 130 C0 120.1 0 110.2 0 100 C-3.3 100 -6.6 100 -10 100 C-10 103.3 -10 106.6 -10 110 C-13.3 110 -16.6 110 -20 110 C-20 106.7 -20 103.4 -20 100 C-23.3 100 -26.6 100 -30 100 C-30 96.7 -30 93.4 -30 90 C-33.3 90 -36.6 90 -40 90 C-40 86.7 -40 83.4 -40 80 C-43.3 80 -46.6 80 -50 80 C-50 76.7 -50 73.4 -50 70 C-53.3 70 -56.6 70 -60 70 C-60 66.7 -60 63.4 -60 60 C-63.3 60 -66.6 60 -70 60 C-70 56.7 -70 53.4 -70 50 C-66.7 50 -63.4 50 -60 50 C-60 46.7 -60 43.4 -60 40 C-56.7 40 -53.4 40 -50 40 C-50 36.7 -50 33.4 -50 30 C-46.7 30 -43.4 30 -40 30 C-40 26.7 -40 23.4 -40 20 C-33.4 20 -26.8 20 -20 20 C-20 16.7 -20 13.4 -20 10 C-13.4 10 -6.8 10 0 10 C0 6.7 0 3.4 0 0 Z " fill="#000000" transform="translate(100,0)"/>
<path d="M0 0 C3.3 0 6.6 0 10 0 C10 3.3 10 6.6 10 10 C13.3 10 16.6 10 20 10 C20 13.3 20 16.6 20 20 C23.3 20 26.6 20 30 20 C30 23.3 30 26.6 30 30 C33.3 30 36.6 30 40 30 C40 33.3 40 36.6 40 40 C43.3 40 46.6 40 50 40 C50 43.3 50 46.6 50 50 C53.3 50 56.6 50 60 50 C60 53.3 60 56.6 60 60 C63.3 60 66.6 60 70 60 C70 63.3 70 66.6 70 70 C73.3 70 76.6 70 80 70 C80 73.3 80 76.6 80 80 C83.3 80 86.6 80 90 80 C90 83.3 90 86.6 90 90 C93.3 90 96.6 90 100 90 C100 93.3 100 96.6 100 100 C103.3 100 106.6 100 110 100 C110 103.3 110 106.6 110 110 C113.3 110 116.6 110 120 110 C120 93.5 120 77 120 60 C123.3 60 126.6 60 130 60 C130 63.3 130 66.6 130 70 C133.3 70 136.6 70 140 70 C140 73.3 140 76.6 140 80 C143.3 80 146.6 80 150 80 C150 89.9 150 99.8 150 110 C153.3 110 156.6 110 160 110 C160 106.7 160 103.4 160 100 C163.3 100 166.6 100 170 100 C170 103.3 170 106.6 170 110 C173.3 110 176.6 110 180 110 C180 113.3 180 116.6 180 120 C183.3 120 186.6 120 190 120 C190 123.3 190 126.6 190 130 C193.3 130 196.6 130 200 130 C200 133.3 200 136.6 200 140 C203.3 140 206.6 140 210 140 C210 143.3 210 146.6 210 150 C213.3 150 216.6 150 220 150 C220 156.6 220 163.2 220 170 C216.7 170 213.4 170 210 170 C210 173.3 210 176.6 210 180 C203.4 180 196.8 180 190 180 C190 183.3 190 186.6 190 190 C186.7 190 183.4 190 180 190 C180 193.3 180 196.6 180 200 C166.8 200 153.6 200 140 200 C140 203.3 140 206.6 140 210 C120.2 210 100.4 210 80 210 C80 206.7 80 203.4 80 200 C70.1 200 60.2 200 50 200 C50 196.7 50 193.4 50 190 C46.7 190 43.4 190 40 190 C40 186.7 40 183.4 40 180 C33.4 180 26.8 180 20 180 C20 176.7 20 173.4 20 170 C16.7 170 13.4 170 10 170 C10 163.4 10 156.8 10 150 C6.7 150 3.4 150 0 150 C0 143.4 0 136.8 0 130 C-3.3 130 -6.6 130 -10 130 C-10 120.1 -10 110.2 -10 100 C-13.3 100 -16.6 100 -20 100 C-20 80.2 -20 60.4 -20 40 C-16.7 40 -13.4 40 -10 40 C-10 30.1 -10 20.2 -10 10 C-6.7 10 -3.4 10 0 10 C0 6.7 0 3.4 0 0 Z " fill="#000000" transform="translate(20,80)"/>
<path d="M0 0 C6.6 0 13.2 0 20 0 C20 3.3 20 6.6 20 10 C26.6 10 33.2 10 40 10 C40 13.3 40 16.6 40 20 C43.3 20 46.6 20 50 20 C50 26.6 50 33.2 50 40 C53.3 40 56.6 40 60 40 C60 46.6 60 53.2 60 60 C63.3 60 66.6 60 70 60 C70 83.1 70 106.2 70 130 C66.7 130 63.4 130 60 130 C60 136.6 60 143.2 60 150 C56.7 150 53.4 150 50 150 C50 146.7 50 143.4 50 140 C46.7 140 43.4 140 40 140 C40 136.7 40 133.4 40 130 C36.7 130 33.4 130 30 130 C30 126.7 30 123.4 30 120 C26.7 120 23.4 120 20 120 C20 116.7 20 113.4 20 110 C16.7 110 13.4 110 10 110 C10 106.7 10 103.4 10 100 C13.3 100 16.6 100 20 100 C20 90.1 20 80.2 20 70 C16.7 70 13.4 70 10 70 C10 63.4 10 56.8 10 50 C3.4 50 -3.2 50 -10 50 C-10 43.4 -10 36.8 -10 30 C-3.4 30 3.2 30 10 30 C10 26.7 10 23.4 10 20 C3.4 20 -3.2 20 -10 20 C-10 16.7 -10 13.4 -10 10 C-6.7 10 -3.4 10 0 10 C0 6.7 0 3.4 0 0 Z " fill="#000000" transform="translate(170,40)"/>
<path d="M0 0 C19.8 0 39.6 0 60 0 C60 3.3 60 6.6 60 10 C66.6 10 73.2 10 80 10 C80 13.3 80 16.6 80 20 C73.4 20 66.8 20 60 20 C60 23.3 60 26.6 60 30 C56.7 30 53.4 30 50 30 C50 33.3 50 36.6 50 40 C56.6 40 63.2 40 70 40 C70 43.3 70 46.6 70 50 C63.4 50 56.8 50 50 50 C50 56.6 50 63.2 50 70 C56.6 70 63.2 70 70 70 C70 76.6 70 83.2 70 90 C73.3 90 76.6 90 80 90 C80 99.9 80 109.8 80 120 C73.4 120 66.8 120 60 120 C60 116.7 60 113.4 60 110 C56.7 110 53.4 110 50 110 C50 106.7 50 103.4 50 100 C46.7 100 43.4 100 40 100 C40 96.7 40 93.4 40 90 C36.7 90 33.4 90 30 90 C30 86.7 30 83.4 30 80 C26.7 80 23.4 80 20 80 C20 96.5 20 113 20 130 C16.7 130 13.4 130 10 130 C10 126.7 10 123.4 10 120 C6.7 120 3.4 120 0 120 C0 116.7 0 113.4 0 110 C-3.3 110 -6.6 110 -10 110 C-10 96.8 -10 83.6 -10 70 C-6.7 70 -3.4 70 0 70 C0 66.7 0 63.4 0 60 C9.9 60 19.8 60 30 60 C30 56.7 30 53.4 30 50 C26.7 50 23.4 50 20 50 C20 46.7 20 43.4 20 40 C13.4 40 6.8 40 0 40 C0 36.7 0 33.4 0 30 C6.6 30 13.2 30 20 30 C20 23.4 20 16.8 20 10 C13.4 10 6.8 10 0 10 C0 6.7 0 3.4 0 0 Z " fill="#FFFFFF" transform="translate(110,20)"/>
<path d="M0 0 C6.6 0 13.2 0 20 0 C20 3.3 20 6.6 20 10 C29.9 10 39.8 10 50 10 C50 6.7 50 3.4 50 0 C56.6 0 63.2 0 70 0 C70 3.3 70 6.6 70 10 C66.7 10 63.4 10 60 10 C60 13.3 60 16.6 60 20 C56.7 20 53.4 20 50 20 C50 23.3 50 26.6 50 30 C59.9 30 69.8 30 80 30 C80 33.3 80 36.6 80 40 C73.4 40 66.8 40 60 40 C60 46.6 60 53.2 60 60 C69.9 60 79.8 60 90 60 C90 63.3 90 66.6 90 70 C80.1 70 70.2 70 60 70 C60 73.3 60 76.6 60 80 C43.5 80 27 80 10 80 C10 76.7 10 73.4 10 70 C0.1 70 -9.8 70 -20 70 C-20 66.7 -20 63.4 -20 60 C-10.1 60 -0.2 60 10 60 C10 56.7 10 53.4 10 50 C6.7 50 3.4 50 0 50 C0 46.7 0 43.4 0 40 C6.6 40 13.2 40 20 40 C20 33.4 20 26.8 20 20 C16.7 20 13.4 20 10 20 C10 16.7 10 13.4 10 10 C6.7 10 3.4 10 0 10 C0 6.7 0 3.4 0 0 Z " fill="#FFFFFF" transform="translate(100,190)"/>
<path d="M0 0 C3.3 0 6.6 0 10 0 C10 3.3 10 6.6 10 10 C13.3 10 16.6 10 20 10 C20 13.3 20 16.6 20 20 C23.3 20 26.6 20 30 20 C30 29.9 30 39.8 30 50 C23.4 50 16.8 50 10 50 C10 53.3 10 56.6 10 60 C0.1 60 -9.8 60 -20 60 C-20 56.7 -20 53.4 -20 50 C-29.9 50 -39.8 50 -50 50 C-50 46.7 -50 43.4 -50 40 C-53.3 40 -56.6 40 -60 40 C-60 30.1 -60 20.2 -60 10 C-53.4 10 -46.8 10 -40 10 C-40 13.3 -40 16.6 -40 20 C-36.7 20 -33.4 20 -30 20 C-30 23.3 -30 26.6 -30 30 C-26.7 30 -23.4 30 -20 30 C-20 33.3 -20 36.6 -20 40 C-16.7 40 -13.4 40 -10 40 C-10 43.3 -10 46.6 -10 50 C-6.7 50 -3.4 50 0 50 C0 33.5 0 17 0 0 Z " fill="#000000" transform="translate(140,140)"/>
<path d="M0 0 C9.9 0 19.8 0 30 0 C30 3.3 30 6.6 30 10 C36.6 10 43.2 10 50 10 C50 16.6 50 23.2 50 30 C53.3 30 56.6 30 60 30 C60 36.6 60 43.2 60 50 C56.7 50 53.4 50 50 50 C50 46.7 50 43.4 50 40 C46.7 40 43.4 40 40 40 C40 36.7 40 33.4 40 30 C36.7 30 33.4 30 30 30 C30 26.7 30 23.4 30 20 C26.7 20 23.4 20 20 20 C20 16.7 20 13.4 20 10 C16.7 10 13.4 10 10 10 C10 26.5 10 43 10 60 C6.7 60 3.4 60 0 60 C0 56.7 0 53.4 0 50 C-3.3 50 -6.6 50 -10 50 C-10 46.7 -10 43.4 -10 40 C-13.3 40 -16.6 40 -20 40 C-20 30.1 -20 20.2 -20 10 C-13.4 10 -6.8 10 0 10 C0 6.7 0 3.4 0 0 Z " fill="#FF0000" transform="translate(120,90)"/>
<path d="M0 0 C3.3 0 6.6 0 10 0 C10 3.3 10 6.6 10 10 C13.3 10 16.6 10 20 10 C20 13.3 20 16.6 20 20 C23.3 20 26.6 20 30 20 C30 29.9 30 39.8 30 50 C20.1 50 10.2 50 0 50 C0 33.5 0 17 0 0 Z " fill="#FF0000" transform="translate(140,140)"/>
<path d="M0 0 C9.9 0 19.8 0 30 0 C30 3.3 30 6.6 30 10 C36.6 10 43.2 10 50 10 C50 16.6 50 23.2 50 30 C53.3 30 56.6 30 60 30 C60 36.6 60 43.2 60 50 C56.7 50 53.4 50 50 50 C50 46.7 50 43.4 50 40 C46.7 40 43.4 40 40 40 C40 36.7 40 33.4 40 30 C36.7 30 33.4 30 30 30 C30 26.7 30 23.4 30 20 C26.7 20 23.4 20 20 20 C20 16.7 20 13.4 20 10 C13.4 10 6.8 10 0 10 C0 6.7 0 3.4 0 0 Z " fill="#000000" transform="translate(120,90)"/>
<path d="M0 0 C3.3 0 6.6 0 10 0 C10 23.1 10 46.2 10 70 C6.7 70 3.4 70 0 70 C0 46.9 0 23.8 0 0 Z " fill="#FFFFFF" transform="translate(240,100)"/>
<path d="M0 0 C3.3 0 6.6 0 10 0 C10 19.8 10 39.6 10 60 C6.7 60 3.4 60 0 60 C0 40.2 0 20.4 0 0 Z " fill="#FFFFFF" transform="translate(20,120)"/>
<path d="M0 0 C3.3 0 6.6 0 10 0 C10 6.6 10 13.2 10 20 C13.3 20 16.6 20 20 20 C20 26.6 20 33.2 20 40 C16.7 40 13.4 40 10 40 C10 36.7 10 33.4 10 30 C6.7 30 3.4 30 0 30 C0 20.1 0 10.2 0 0 Z " fill="#FFFFFF" transform="translate(80,150)"/>
<path d="M0 0 C9.9 0 19.8 0 30 0 C30 3.3 30 6.6 30 10 C20.1 10 10.2 10 0 10 C0 6.7 0 3.4 0 0 Z " fill="#000000" transform="translate(120,190)"/>
<path d="M0 0 C3.3 0 6.6 0 10 0 C10 9.9 10 19.8 10 30 C6.7 30 3.4 30 0 30 C0 20.1 0 10.2 0 0 Z " fill="#FFFFFF" transform="translate(30,180)"/>
<path d="M0 0 C3.3 0 6.6 0 10 0 C10 6.6 10 13.2 10 20 C3.4 20 -3.2 20 -10 20 C-10 16.7 -10 13.4 -10 10 C-6.7 10 -3.4 10 0 10 C0 6.7 0 3.4 0 0 Z " fill="#000000" transform="translate(160,170)"/>
<path d="M0 0 C3.3 0 6.6 0 10 0 C10 3.3 10 6.6 10 10 C13.3 10 16.6 10 20 10 C20 13.3 20 16.6 20 20 C13.4 20 6.8 20 0 20 C0 13.4 0 6.8 0 0 Z " fill="#000000" transform="translate(90,150)"/>
<path d="M0 0 C3.3 0 6.6 0 10 0 C10 9.9 10 19.8 10 30 C6.7 30 3.4 30 0 30 C0 20.1 0 10.2 0 0 Z " fill="#000000" transform="translate(140,140)"/>
<path d="M0 0 C3.3 0 6.6 0 10 0 C10 9.9 10 19.8 10 30 C6.7 30 3.4 30 0 30 C0 20.1 0 10.2 0 0 Z " fill="#000000" transform="translate(120,120)"/>
<path d="M0 0 C6.6 0 13.2 0 20 0 C20 3.3 20 6.6 20 10 C16.7 10 13.4 10 10 10 C10 13.3 10 16.6 10 20 C6.7 20 3.4 20 0 20 C0 13.4 0 6.8 0 0 Z " fill="#000000" transform="translate(100,100)"/>
<path d="M0 0 C9.9 0 19.8 0 30 0 C30 3.3 30 6.6 30 10 C20.1 10 10.2 10 0 10 C0 6.7 0 3.4 0 0 Z " fill="#FFFFFF" transform="translate(80,30)"/>
<path d="M0 0 C3.3 0 6.6 0 10 0 C10 6.6 10 13.2 10 20 C6.7 20 3.4 20 0 20 C0 13.4 0 6.8 0 0 Z " fill="#FFFFFF" transform="translate(40,210)"/>
<path d="M0 0 C3.3 0 6.6 0 10 0 C10 6.6 10 13.2 10 20 C6.7 20 3.4 20 0 20 C0 13.4 0 6.8 0 0 Z " fill="#FFFFFF" transform="translate(230,170)"/>
<path d="M0 0 C3.3 0 6.6 0 10 0 C10 6.6 10 13.2 10 20 C6.7 20 3.4 20 0 20 C0 13.4 0 6.8 0 0 Z " fill="#000000" transform="translate(170,120)"/>
<path d="M0 0 C3.3 0 6.6 0 10 0 C10 6.6 10 13.2 10 20 C6.7 20 3.4 20 0 20 C0 13.4 0 6.8 0 0 Z " fill="#FFFFFF" transform="translate(30,100)"/>
<path d="M0 0 C3.3 0 6.6 0 10 0 C10 6.6 10 13.2 10 20 C6.7 20 3.4 20 0 20 C0 13.4 0 6.8 0 0 Z " fill="#FFFFFF" transform="translate(230,80)"/>
<path d="M0 0 C3.3 0 6.6 0 10 0 C10 6.6 10 13.2 10 20 C6.7 20 3.4 20 0 20 C0 13.4 0 6.8 0 0 Z " fill="#FFFFFF" transform="translate(220,60)"/>
<path d="M0 0 C6.6 0 13.2 0 20 0 C20 3.3 20 6.6 20 10 C13.4 10 6.8 10 0 10 C0 6.7 0 3.4 0 0 Z " fill="#FFFFFF" transform="translate(190,40)"/>
<path d="M0 0 C6.6 0 13.2 0 20 0 C20 3.3 20 6.6 20 10 C13.4 10 6.8 10 0 10 C0 6.7 0 3.4 0 0 Z " fill="#FFFFFF" transform="translate(60,40)"/>
<path d="M0 0 C3.3 0 6.6 0 10 0 C10 3.3 10 6.6 10 10 C6.7 10 3.4 10 0 10 C0 6.7 0 3.4 0 0 Z " fill="#FFFFFF" transform="translate(190,240)"/>
<path d="M0 0 C3.3 0 6.6 0 10 0 C10 3.3 10 6.6 10 10 C6.7 10 3.4 10 0 10 C0 6.7 0 3.4 0 0 Z " fill="#FFFFFF" transform="translate(70,240)"/>
<path d="M0 0 C3.3 0 6.6 0 10 0 C10 3.3 10 6.6 10 10 C6.7 10 3.4 10 0 10 C0 6.7 0 3.4 0 0 Z " fill="#FFFFFF" transform="translate(210,230)"/>
<path d="M0 0 C3.3 0 6.6 0 10 0 C10 3.3 10 6.6 10 10 C6.7 10 3.4 10 0 10 C0 6.7 0 3.4 0 0 Z " fill="#FFFFFF" transform="translate(50,230)"/>
<path d="M0 0 C3.3 0 6.6 0 10 0 C10 3.3 10 6.6 10 10 C6.7 10 3.4 10 0 10 C0 6.7 0 3.4 0 0 Z " fill="#FF0000" transform="translate(120,180)"/>
<path d="M0 0 C3.3 0 6.6 0 10 0 C10 3.3 10 6.6 10 10 C6.7 10 3.4 10 0 10 C0 6.7 0 3.4 0 0 Z " fill="#FF0000" transform="translate(110,170)"/>
<path d="M0 0 C3.3 0 6.6 0 10 0 C10 3.3 10 6.6 10 10 C6.7 10 3.4 10 0 10 C0 6.7 0 3.4 0 0 Z " fill="#FF0000" transform="translate(100,160)"/>
<path d="M0 0 C3.3 0 6.6 0 10 0 C10 3.3 10 6.6 10 10 C6.7 10 3.4 10 0 10 C0 6.7 0 3.4 0 0 Z " fill="#FF0000" transform="translate(160,120)"/>
<path d="M0 0 C3.3 0 6.6 0 10 0 C10 3.3 10 6.6 10 10 C6.7 10 3.4 10 0 10 C0 6.7 0 3.4 0 0 Z " fill="#FF0000" transform="translate(150,110)"/>
<path d="M0 0 C3.3 0 6.6 0 10 0 C10 3.3 10 6.6 10 10 C6.7 10 3.4 10 0 10 C0 6.7 0 3.4 0 0 Z " fill="#FF0000" transform="translate(140,100)"/>
<path d="M0 0 C3.3 0 6.6 0 10 0 C10 3.3 10 6.6 10 10 C6.7 10 3.4 10 0 10 C0 6.7 0 3.4 0 0 Z " fill="#FFFFFF" transform="translate(210,50)"/>
<path d="M0 0 C3.3 0 6.6 0 10 0 C10 3.3 10 6.6 10 10 C6.7 10 3.4 10 0 10 C0 6.7 0 3.4 0 0 Z " fill="#FFFFFF" transform="translate(50,50)"/>
</svg>
