<?xml version="1.0" encoding="UTF-8"?>
<svg xmlns="http://www.w3.org/2000/svg" xmlns:xlink="http://www.w3.org/1999/xlink" width="50px" height="px" viewBox="0 0 50 49" version="1.1">
<g id="surface1">
<path style=" stroke:none;fill-rule:nonzero;fill:rgb(0%,0%,0%);fill-opacity:1;" d="M 18.359375 0 C 22.742188 0 27.125 0 31.640625 0 C 31.640625 0.601562 31.640625 1.203125 31.640625 1.824219 C 32.851562 1.824219 34.0625 1.824219 35.308594 1.824219 C 35.308594 2.417969 35.308594 3.011719 35.308594 3.625 C 36.527344 3.625 37.742188 3.625 38.996094 3.625 C 38.996094 4.226562 38.996094 4.828125 38.996094 5.449219 C 40.207031 5.449219 41.417969 5.449219 42.664062 5.449219 C 42.664062 6.042969 42.664062 6.640625 42.664062 7.25 C 43.238281 7.25 43.8125 7.25 44.40625 7.25 C 44.40625 7.847656 44.40625 8.441406 44.40625 9.054688 C 45.054688 9.054688 45.703125 9.054688 46.375 9.054688 C 46.375 10.265625 46.375 11.472656 46.375 12.722656 C 46.953125 12.722656 47.535156 12.722656 48.136719 12.722656 C 48.160156 13.5 48.160156 13.5 48.160156 13.875 C 48.164062 13.917969 48.164062 13.964844 48.164062 14.007812 C 48.164062 14.121094 48.164062 14.238281 48.167969 14.351562 C 48.167969 14.472656 48.167969 14.59375 48.167969 14.71875 C 48.171875 14.921875 48.171875 15.125 48.175781 15.328125 C 48.175781 15.613281 48.179688 15.902344 48.183594 16.1875 C 48.183594 16.386719 48.1875 16.585938 48.1875 16.789062 C 48.1875 16.835938 48.1875 16.882812 48.191406 16.933594 C 48.191406 17.070312 48.191406 17.207031 48.191406 17.34375 C 48.195312 17.382812 48.195312 17.425781 48.195312 17.464844 C 48.195312 17.523438 48.195312 17.578125 48.195312 17.636719 C 48.195312 17.652344 48.195312 17.667969 48.195312 17.683594 C 48.199219 17.851562 48.195312 18.023438 48.195312 18.191406 C 48.792969 18.191406 49.386719 18.191406 50 18.191406 C 50 22.429688 50 26.667969 50 31.035156 C 49.410156 31.035156 48.824219 31.035156 48.21875 31.035156 C 48.21875 31.199219 48.21875 31.359375 48.21875 31.527344 C 48.21875 32.019531 48.214844 32.511719 48.210938 33.003906 C 48.207031 33.054688 48.207031 33.105469 48.207031 33.15625 C 48.207031 33.238281 48.207031 33.320312 48.203125 33.398438 C 48.203125 33.429688 48.203125 33.460938 48.203125 33.488281 C 48.199219 33.824219 48.1875 34.160156 48.175781 34.496094 C 47.566406 34.496094 46.960938 34.496094 46.332031 34.496094 C 46.332031 35.707031 46.332031 36.917969 46.332031 38.164062 C 45.738281 38.164062 45.140625 38.164062 44.53125 38.164062 C 44.53125 39.394531 44.53125 40.625 44.53125 41.890625 C 43.914062 41.890625 43.296875 41.890625 42.664062 41.890625 C 42.664062 42.480469 42.664062 43.066406 42.664062 43.675781 C 41.453125 43.675781 40.242188 43.675781 38.996094 43.675781 C 38.996094 44.316406 38.996094 44.957031 38.996094 45.621094 C 37.738281 45.621094 36.480469 45.621094 35.183594 45.621094 C 35.183594 46.148438 35.183594 46.675781 35.183594 47.21875 C 34.015625 47.21875 32.847656 47.21875 31.640625 47.21875 C 31.640625 47.804688 31.640625 48.394531 31.640625 49 C 27.257812 49 22.875 49 18.359375 49 C 18.359375 48.410156 18.359375 47.824219 18.359375 47.21875 C 17.191406 47.21875 16.019531 47.21875 14.816406 47.21875 C 14.816406 46.691406 14.816406 46.164062 14.816406 45.621094 C 13.5625 45.621094 12.3125 45.621094 11.023438 45.621094 C 11.023438 44.976562 11.023438 44.335938 11.023438 43.675781 C 9.804688 43.675781 8.589844 43.675781 7.335938 43.675781 C 7.335938 43.085938 7.335938 42.496094 7.335938 41.890625 C 6.726562 41.890625 6.117188 41.890625 5.492188 41.890625 C 5.492188 40.660156 5.492188 39.429688 5.492188 38.164062 C 4.890625 38.164062 4.289062 38.164062 3.667969 38.164062 C 3.667969 36.953125 3.667969 35.742188 3.667969 34.496094 C 3.175781 34.496094 2.683594 34.496094 2.175781 34.496094 C 2.175781 33.355469 2.175781 32.210938 2.175781 31.035156 C 1.457031 31.035156 0.738281 31.035156 0 31.035156 C 0 26.796875 0 22.558594 0 18.191406 C 0.703125 18.191406 1.410156 18.191406 2.132812 18.191406 C 2.132812 16.386719 2.132812 14.582031 2.132812 12.722656 C 2.625 12.722656 3.117188 12.722656 3.625 12.722656 C 3.625 11.511719 3.625 10.300781 3.625 9.054688 C 4.359375 9.054688 5.089844 9.054688 5.84375 9.054688 C 5.84375 8.460938 5.84375 7.863281 5.84375 7.25 C 6.335938 7.25 6.828125 7.25 7.335938 7.25 C 7.335938 6.65625 7.335938 6.0625 7.335938 5.449219 C 8.550781 5.449219 9.769531 5.449219 11.023438 5.449219 C 11.023438 4.847656 11.023438 4.246094 11.023438 3.625 C 12.234375 3.625 13.445312 3.625 14.691406 3.625 C 14.691406 3.03125 14.691406 2.4375 14.691406 1.824219 C 15.902344 1.824219 17.113281 1.824219 18.359375 1.824219 C 18.359375 1.222656 18.359375 0.621094 18.359375 0 Z M 18.359375 0 "/>
<path style=" stroke:none;fill-rule:nonzero;fill:rgb(99.607843%,99.607843%,99.607843%);fill-opacity:1;" d="M 18.835938 4.179688 C 22.925781 4.179688 27.015625 4.179688 31.226562 4.179688 C 31.226562 4.714844 31.226562 5.246094 31.226562 5.796875 C 32.449219 5.796875 33.675781 5.796875 34.9375 5.796875 C 34.9375 6.289062 34.9375 6.785156 34.9375 7.292969 C 33.71875 7.292969 32.5 7.292969 31.246094 7.292969 C 31.246094 7.894531 31.246094 8.496094 31.246094 9.117188 C 30.632812 9.117188 30.015625 9.117188 29.382812 9.117188 C 29.382812 9.871094 29.382812 10.628906 29.382812 11.410156 C 30.605469 11.410156 31.832031 11.410156 33.089844 11.410156 C 33.089844 11.816406 33.089844 12.222656 33.089844 12.640625 C 31.867188 12.640625 30.644531 12.640625 29.382812 12.640625 C 29.382812 13.996094 29.382812 15.355469 29.382812 16.757812 C 30.605469 16.757812 31.832031 16.757812 33.089844 16.757812 C 33.089844 17.839844 33.089844 18.917969 33.089844 20.035156 C 33.699219 20.035156 34.308594 20.035156 34.9375 20.035156 C 34.9375 23.007812 34.9375 25.984375 34.9375 29.046875 C 34.347656 29.046875 33.757812 29.046875 33.152344 29.046875 C 33.152344 30.109375 33.152344 31.171875 33.152344 32.265625 C 31.945312 32.265625 30.734375 32.265625 29.484375 32.265625 C 29.484375 32.867188 29.484375 33.46875 29.484375 34.085938 C 28.824219 34.085938 28.160156 34.085938 27.476562 34.085938 C 27.476562 34.910156 27.476562 35.738281 27.476562 36.585938 C 29.363281 36.585938 31.25 36.585938 33.195312 36.585938 C 33.195312 36.976562 33.195312 37.371094 33.195312 37.773438 C 31.949219 37.773438 30.707031 37.773438 29.425781 37.773438 C 29.425781 38.410156 29.425781 39.046875 29.425781 39.699219 C 28.78125 39.699219 28.136719 39.699219 27.476562 39.699219 C 27.476562 40.273438 27.476562 40.847656 27.476562 41.441406 C 29.980469 41.441406 32.480469 41.441406 35.058594 41.441406 C 35.058594 42.0625 35.058594 42.683594 35.058594 43.324219 C 33.789062 43.324219 32.515625 43.324219 31.207031 43.324219 C 31.207031 43.941406 31.207031 44.554688 31.207031 45.191406 C 27.125 45.191406 23.042969 45.191406 18.835938 45.191406 C 18.835938 44.574219 18.835938 43.960938 18.835938 43.324219 C 17.5625 43.324219 16.292969 43.324219 14.980469 43.324219 C 14.980469 42.851562 14.980469 42.378906 14.980469 41.890625 C 17.464844 41.890625 19.945312 41.890625 22.503906 41.890625 C 22.503906 41.148438 22.503906 40.40625 22.503906 39.636719 C 21.304688 39.636719 20.109375 39.636719 18.875 39.636719 C 18.875 39.210938 18.875 38.785156 18.875 38.347656 C 20.667969 38.347656 22.460938 38.347656 24.304688 38.347656 C 24.304688 37.558594 24.304688 36.765625 24.304688 35.949219 C 23.695312 35.949219 23.089844 35.949219 22.460938 35.949219 C 22.460938 35.382812 22.460938 34.816406 22.460938 34.230469 C 21.820312 34.230469 21.175781 34.230469 20.515625 34.230469 C 20.515625 33.667969 20.515625 33.109375 20.515625 32.53125 C 19.316406 32.53125 18.121094 32.53125 16.886719 32.53125 C 16.886719 31.257812 16.886719 29.988281 16.886719 28.679688 C 16.300781 28.679688 15.710938 28.679688 15.105469 28.679688 C 15.105469 25.839844 15.105469 23 15.105469 20.074219 C 15.714844 20.074219 16.324219 20.074219 16.949219 20.074219 C 16.949219 18.945312 16.949219 17.816406 16.949219 16.652344 C 18.140625 16.652344 19.328125 16.652344 20.554688 16.652344 C 20.554688 16.050781 20.554688 15.449219 20.554688 14.832031 C 22.382812 14.832031 24.207031 14.832031 26.085938 14.832031 C 26.085938 14.128906 26.085938 13.425781 26.085938 12.699219 C 25.480469 12.699219 24.871094 12.699219 24.242188 12.699219 C 24.242188 12.097656 24.242188 11.496094 24.242188 10.878906 C 23.046875 10.878906 21.851562 10.878906 20.617188 10.878906 C 20.617188 10.40625 20.617188 9.929688 20.617188 9.445312 C 22.421875 9.445312 24.226562 9.445312 26.085938 9.445312 C 26.085938 8.734375 26.085938 8.023438 26.085938 7.292969 C 25.5 7.292969 24.910156 7.292969 24.304688 7.292969 C 24.304688 6.691406 24.304688 6.089844 24.304688 5.46875 C 22.945312 5.46875 21.585938 5.46875 20.183594 5.46875 C 20.183594 6.171875 20.183594 6.875 20.183594 7.601562 C 18.507812 7.601562 16.832031 7.601562 15.105469 7.601562 C 15.105469 7.003906 15.105469 6.410156 15.105469 5.796875 C 16.335938 5.796875 17.566406 5.796875 18.835938 5.796875 C 18.835938 5.261719 18.835938 4.730469 18.835938 4.179688 Z M 18.835938 4.179688 "/>
<path style=" stroke:none;fill-rule:nonzero;fill:rgb(99.607843%,0%,0%);fill-opacity:1;" d="M 22.128906 16.386719 C 24.003906 16.386719 25.878906 16.386719 27.808594 16.386719 C 27.808594 16.949219 27.808594 17.511719 27.808594 18.089844 C 29.039062 18.089844 30.269531 18.089844 31.539062 18.089844 C 31.542969 19.285156 31.550781 20.480469 31.558594 21.714844 C 32.171875 21.722656 32.789062 21.726562 33.421875 21.734375 C 33.421875 23.554688 33.421875 25.371094 33.421875 27.246094 C 32.847656 27.246094 32.273438 27.246094 31.683594 27.246094 C 31.683594 27.257812 31.683594 27.273438 31.683594 27.285156 C 31.65625 27.285156 31.628906 27.285156 31.601562 27.285156 C 31.601562 28.488281 31.601562 29.691406 31.601562 30.933594 C 30.402344 30.933594 29.207031 30.933594 27.972656 30.933594 C 27.972656 31.511719 27.972656 32.09375 27.972656 32.695312 C 25.996094 32.695312 24.019531 32.695312 21.984375 32.695312 C 21.984375 32.113281 21.984375 31.53125 21.984375 30.933594 C 20.78125 30.933594 19.578125 30.933594 18.339844 30.933594 C 18.339844 29.714844 18.339844 28.5 18.339844 27.246094 C 17.738281 27.246094 17.132812 27.246094 16.515625 27.246094 C 16.515625 25.417969 16.515625 23.59375 16.515625 21.714844 C 17.136719 21.714844 17.757812 21.714844 18.398438 21.714844 C 18.398438 20.515625 18.398438 19.320312 18.398438 18.089844 C 19.632812 18.089844 20.863281 18.089844 22.128906 18.089844 C 22.128906 17.527344 22.128906 16.964844 22.128906 16.386719 Z M 22.128906 16.386719 "/>
<path style=" stroke:none;fill-rule:nonzero;fill:rgb(0%,0%,0%);fill-opacity:1;" d="M 22.128906 16.386719 C 24.003906 16.386719 25.878906 16.386719 27.808594 16.386719 C 27.808594 16.949219 27.808594 17.511719 27.808594 18.089844 C 29.039062 18.089844 30.269531 18.089844 31.539062 18.089844 C 31.542969 19.285156 31.550781 20.480469 31.558594 21.714844 C 32.171875 21.722656 32.789062 21.726562 33.421875 21.734375 C 33.421875 23.554688 33.421875 25.371094 33.421875 27.246094 C 32.847656 27.246094 32.273438 27.246094 31.683594 27.246094 C 31.683594 27.257812 31.683594 27.273438 31.683594 27.285156 C 31.65625 27.285156 31.628906 27.285156 31.601562 27.285156 C 31.601562 28.488281 31.601562 29.691406 31.601562 30.933594 C 30.402344 30.933594 29.207031 30.933594 27.972656 30.933594 C 27.972656 31.511719 27.972656 32.09375 27.972656 32.695312 C 25.996094 32.695312 24.019531 32.695312 21.984375 32.695312 C 21.984375 32.113281 21.984375 31.53125 21.984375 30.933594 C 20.78125 30.933594 19.578125 30.933594 18.339844 30.933594 C 18.339844 29.714844 18.339844 28.5 18.339844 27.246094 C 17.738281 27.246094 17.132812 27.246094 16.515625 27.246094 C 16.515625 25.417969 16.515625 23.59375 16.515625 21.714844 C 17.136719 21.714844 17.757812 21.714844 18.398438 21.714844 C 18.398438 20.515625 18.398438 19.320312 18.398438 18.089844 C 19.632812 18.089844 20.863281 18.089844 22.128906 18.089844 C 22.128906 17.527344 22.128906 16.964844 22.128906 16.386719 Z M 22.398438 18.519531 C 22.398438 19.03125 22.398438 19.546875 22.398438 20.074219 C 21.796875 20.074219 21.195312 20.074219 20.574219 20.074219 C 20.574219 20.757812 20.574219 21.441406 20.574219 22.144531 C 19.980469 22.144531 19.386719 22.144531 18.773438 22.144531 C 18.773438 23.691406 18.773438 25.242188 18.773438 26.835938 C 19.382812 26.835938 19.992188 26.835938 20.617188 26.835938 C 20.617188 27.464844 20.617188 28.09375 20.617188 28.742188 C 21.207031 28.742188 21.792969 28.742188 22.398438 28.742188 C 22.398438 29.300781 22.398438 29.863281 22.398438 30.441406 C 22.515625 30.453125 22.621094 30.464844 22.738281 30.464844 C 22.75 30.464844 22.765625 30.464844 22.78125 30.464844 C 22.828125 30.464844 22.875 30.464844 22.917969 30.46875 C 22.953125 30.46875 22.988281 30.46875 23.019531 30.46875 C 23.113281 30.46875 23.203125 30.46875 23.296875 30.472656 C 23.394531 30.472656 23.492188 30.472656 23.585938 30.476562 C 23.753906 30.476562 23.917969 30.476562 24.082031 30.480469 C 24.25 30.480469 24.414062 30.484375 24.582031 30.484375 C 25.621094 30.5 25.621094 30.5 26.660156 30.503906 C 26.675781 30.503906 26.691406 30.503906 26.707031 30.503906 C 27.011719 30.503906 27.316406 30.503906 27.621094 30.503906 C 27.621094 29.933594 27.621094 29.367188 27.621094 28.78125 C 28.210938 28.78125 28.796875 28.78125 29.402344 28.78125 C 29.402344 28.152344 29.402344 27.523438 29.402344 26.875 C 29.984375 26.875 30.566406 26.875 31.164062 26.875 C 31.164062 26.863281 31.164062 26.847656 31.164062 26.835938 C 31.191406 26.835938 31.21875 26.835938 31.246094 26.835938 C 31.246094 25.308594 31.246094 23.78125 31.246094 22.207031 C 30.660156 22.207031 30.070312 22.207031 29.464844 22.207031 C 29.464844 21.523438 29.464844 20.839844 29.464844 20.136719 C 28.855469 20.136719 28.25 20.136719 27.621094 20.136719 C 27.621094 19.601562 27.621094 19.070312 27.621094 18.519531 C 25.898438 18.519531 24.175781 18.519531 22.398438 18.519531 Z M 22.398438 18.519531 "/>
<path style=" stroke:none;fill-rule:nonzero;fill:rgb(99.607843%,99.607843%,99.607843%);fill-opacity:1;" d="M 5.96875 14.933594 C 6.570312 14.933594 7.171875 14.933594 7.792969 14.933594 C 7.792969 16.609375 7.792969 18.285156 7.792969 20.015625 C 7.046875 20.015625 6.300781 20.015625 5.53125 20.015625 C 5.53125 23.015625 5.53125 26.015625 5.53125 29.109375 C 6.292969 29.109375 7.050781 29.109375 7.832031 29.109375 C 7.832031 30.820312 7.832031 32.53125 7.832031 34.292969 C 7.21875 34.292969 6.601562 34.292969 5.96875 34.292969 C 5.96875 33.0625 5.96875 31.832031 5.96875 30.5625 C 5.34375 30.5625 4.722656 30.5625 4.082031 30.5625 C 4.082031 26.609375 4.082031 22.65625 4.082031 18.578125 C 4.703125 18.578125 5.328125 18.578125 5.96875 18.578125 C 5.96875 17.375 5.96875 16.171875 5.96875 14.933594 Z M 5.96875 14.933594 "/>
<path style=" stroke:none;fill-rule:nonzero;fill:rgb(99.607843%,99.607843%,99.607843%);fill-opacity:1;" d="M 42.332031 14.933594 C 42.90625 14.933594 43.480469 14.933594 44.074219 14.933594 C 44.074219 16.136719 44.074219 17.339844 44.074219 18.578125 C 44.695312 18.578125 45.316406 18.578125 45.960938 18.578125 C 45.960938 22.535156 45.960938 26.488281 45.960938 30.5625 C 45.335938 30.5625 44.714844 30.5625 44.074219 30.5625 C 44.074219 31.792969 44.074219 33.023438 44.074219 34.292969 C 43.464844 34.292969 42.855469 34.292969 42.230469 34.292969 C 42.230469 32.703125 42.230469 31.113281 42.230469 29.476562 C 42.960938 29.472656 43.691406 29.464844 44.445312 29.457031 C 44.453125 26.339844 44.460938 23.222656 44.46875 20.015625 C 43.761719 20.015625 43.058594 20.015625 42.332031 20.015625 C 42.332031 18.335938 42.332031 16.660156 42.332031 14.933594 Z M 42.332031 14.933594 "/>
<path style=" stroke:none;fill-rule:nonzero;fill:rgb(0%,0%,0%);fill-opacity:1;" d="M 22.046875 21.878906 C 23.980469 21.878906 25.917969 21.878906 27.910156 21.878906 C 27.910156 23.675781 27.910156 25.472656 27.910156 27.328125 C 25.976562 27.328125 24.042969 27.328125 22.046875 27.328125 C 22.046875 25.527344 22.046875 23.730469 22.046875 21.878906 Z M 22.046875 21.878906 "/>
<path style=" stroke:none;fill-rule:nonzero;fill:rgb(99.607843%,99.607843%,99.607843%);fill-opacity:1;" d="M 40.363281 11.246094 C 40.980469 11.246094 41.59375 11.246094 42.230469 11.246094 C 42.230469 12.457031 42.230469 13.667969 42.230469 14.914062 C 41.613281 14.914062 41 14.914062 40.363281 14.914062 C 40.363281 13.703125 40.363281 12.492188 40.363281 11.246094 Z M 40.363281 11.246094 "/>
<path style=" stroke:none;fill-rule:nonzero;fill:rgb(99.607843%,99.607843%,99.607843%);fill-opacity:1;" d="M 7.8125 11.246094 C 8.421875 11.246094 9.027344 11.246094 9.65625 11.246094 C 9.65625 12.457031 9.65625 13.667969 9.65625 14.914062 C 9.046875 14.914062 8.4375 14.914062 7.8125 14.914062 C 7.8125 13.703125 7.8125 12.492188 7.8125 11.246094 Z M 7.8125 11.246094 "/>
<path style=" stroke:none;fill-rule:nonzero;fill:rgb(98.823529%,98.823529%,98.823529%);fill-opacity:1;" d="M 11.375 7.660156 C 12.59375 7.660156 13.808594 7.660156 15.0625 7.660156 C 15.0625 8.261719 15.0625 8.863281 15.0625 9.484375 C 13.847656 9.484375 12.628906 9.484375 11.375 9.484375 C 11.375 8.882812 11.375 8.28125 11.375 7.660156 Z M 11.375 7.660156 "/>
<path style=" stroke:none;fill-rule:nonzero;fill:rgb(99.215686%,99.215686%,99.215686%);fill-opacity:1;" d="M 35.121094 7.660156 C 36.292969 7.660156 37.460938 7.660156 38.664062 7.660156 C 38.664062 8.242188 38.664062 8.824219 38.664062 9.421875 C 37.496094 9.421875 36.328125 9.421875 35.121094 9.421875 C 35.121094 8.839844 35.121094 8.261719 35.121094 7.660156 Z M 35.121094 7.660156 "/>
<path style=" stroke:none;fill-rule:nonzero;fill:rgb(99.215686%,99.215686%,99.215686%);fill-opacity:1;" d="M 40.425781 34.414062 C 40.996094 34.414062 41.5625 34.414062 42.148438 34.414062 C 42.148438 35.542969 42.148438 36.671875 42.148438 37.835938 C 41.578125 37.835938 41.011719 37.835938 40.425781 37.835938 C 40.425781 36.707031 40.425781 35.578125 40.425781 34.414062 Z M 40.425781 34.414062 "/>
<path style=" stroke:none;fill-rule:nonzero;fill:rgb(100%,100%,100%);fill-opacity:1;" d="M 7.914062 34.351562 C 8.476562 34.351562 9.035156 34.351562 9.613281 34.351562 C 9.613281 35.496094 9.613281 36.636719 9.613281 37.816406 C 9.054688 37.816406 8.492188 37.816406 7.914062 37.816406 C 7.914062 36.671875 7.914062 35.53125 7.914062 34.351562 Z M 7.914062 34.351562 "/>
<path style=" stroke:none;fill-rule:nonzero;fill:rgb(99.607843%,99.607843%,99.607843%);fill-opacity:1;" d="M 35.101562 39.84375 C 36.296875 39.84375 37.496094 39.84375 38.726562 39.84375 C 38.722656 40.085938 38.714844 40.328125 38.707031 40.582031 C 38.699219 40.851562 38.691406 41.121094 38.6875 41.398438 C 37.503906 41.398438 36.320312 41.398438 35.101562 41.398438 C 35.101562 40.886719 35.101562 40.371094 35.101562 39.84375 Z M 35.101562 39.84375 "/>
<path style=" stroke:none;fill-rule:nonzero;fill:rgb(99.607843%,99.607843%,99.607843%);fill-opacity:1;" d="M 11.6875 39.761719 C 12.726562 39.761719 13.765625 39.761719 14.835938 39.761719 C 14.835938 40.300781 14.835938 40.84375 14.835938 41.398438 C 13.796875 41.398438 12.757812 41.398438 11.6875 41.398438 C 11.6875 40.859375 11.6875 40.320312 11.6875 39.761719 Z M 11.6875 39.761719 "/>
<path style=" stroke:none;fill-rule:nonzero;fill:rgb(99.607843%,99.607843%,99.607843%);fill-opacity:1;" d="M 9.699219 37.855469 C 10.347656 37.855469 10.996094 37.855469 11.664062 37.855469 C 11.664062 38.476562 11.664062 39.101562 11.664062 39.742188 C 11.015625 39.742188 10.367188 39.742188 9.699219 39.742188 C 9.699219 39.117188 9.699219 38.496094 9.699219 37.855469 Z M 9.699219 37.855469 "/>
<path style=" stroke:none;fill-rule:nonzero;fill:rgb(99.607843%,99.607843%,99.607843%);fill-opacity:1;" d="M 38.707031 9.484375 C 39.246094 9.484375 39.789062 9.484375 40.34375 9.484375 C 40.34375 10.050781 40.34375 10.621094 40.34375 11.207031 C 39.804688 11.207031 39.261719 11.207031 38.707031 11.207031 C 38.707031 10.636719 38.707031 10.070312 38.707031 9.484375 Z M 38.707031 9.484375 "/>
<path style=" stroke:none;fill-rule:nonzero;fill:rgb(100%,100%,100%);fill-opacity:1;" d="M 9.699219 9.484375 C 10.238281 9.484375 10.777344 9.484375 11.335938 9.484375 C 11.335938 10.039062 11.335938 10.59375 11.335938 11.164062 C 10.792969 11.164062 10.253906 11.164062 9.699219 11.164062 C 9.699219 10.609375 9.699219 10.054688 9.699219 9.484375 Z M 9.699219 9.484375 "/>
<path style=" stroke:none;fill-rule:nonzero;fill:rgb(100%,100%,100%);fill-opacity:1;" d="M 38.832031 37.9375 C 39.332031 37.9375 39.828125 37.9375 40.34375 37.9375 C 40.34375 38.53125 40.34375 39.128906 40.34375 39.742188 C 39.84375 39.742188 39.34375 39.742188 38.832031 39.742188 C 38.832031 39.144531 38.832031 38.550781 38.832031 37.9375 Z M 38.832031 37.9375 "/>
</g>
</svg>
