<?xml version="1.0" encoding="UTF-8"?>
<svg version="1.1" xmlns="http://www.w3.org/2000/svg" width="2413" height="2392">
<path d="M0 0 C211.53 0 423.06 0 641 0 C641 29.37 641 58.74 641 89 C699.41 89 757.82 89 818 89 C818 118.04 818 147.08 818 177 C876.74 177 935.48 177 996 177 C996 206.37 996 235.74 996 266 C1054.41 266 1112.82 266 1173 266 C1173 295.04 1173 324.08 1173 354 C1200.72 354 1228.44 354 1257 354 C1257 383.04 1257 412.08 1257 442 C1288.35 442 1319.7 442 1352 442 C1352 501.07 1352 560.14 1352 621 C1380.05 621 1408.1 621 1437 621 C1438.14977721 658.94264802 1438.14977721 658.94264802 1438.29711914 677.39648438 C1438.31667456 679.51167573 1438.33653699 681.62686427 1438.35667419 683.74205017 C1438.40933074 689.36293417 1438.45776099 694.98384668 1438.50525212 700.60477638 C1438.5561668 706.54509297 1438.61103155 712.48537329 1438.66539001 718.42565918 C1438.75588065 728.37310874 1438.84383238 738.32057791 1438.92993164 748.26806641 C1439.05097156 762.2514901 1439.17699544 776.23486581 1439.30383885 790.21823788 C1439.39219061 799.97983515 1439.47930604 809.74144353 1439.56622386 819.50305367 C1439.5871342 821.85018002 1439.60808387 824.19730603 1439.62907338 826.54443169 C1439.68880493 833.22685919 1439.74775893 839.90929265 1439.80549049 846.59173775 C1439.82297413 848.60354901 1439.84070198 850.61535818 1439.85870743 852.62716484 C1439.88345025 855.39796263 1439.90723729 858.16876716 1439.93080139 860.9395752 C1439.93790117 861.71188272 1439.94500095 862.48419024 1439.95231587 863.27990103 C1440.02032888 871.52053414 1440 879.75802384 1440 888 C1468.71 888 1497.42 888 1527 888 C1527 1094.91 1527 1301.82 1527 1515 C1498.62 1515 1470.24 1515 1441 1515 C1441.020625 1522.96125 1441.04125 1530.9225 1441.0625 1539.125 C1441.0849591 1563.10079055 1440.89942442 1587.07087439 1440.59428024 1611.04457855 C1440.56300914 1613.52216158 1440.53285412 1615.99975597 1440.50296021 1618.47735596 C1440.45429548 1622.47881265 1440.40198473 1626.48020816 1440.34712219 1630.48158455 C1440.32752117 1631.93164002 1440.30870258 1633.38170643 1440.29090881 1634.8317852 C1440.08654377 1651.22946169 1439.49682001 1667.60493972 1439 1684 C1409.63 1684 1380.26 1684 1350 1684 C1350 1743.07 1350 1802.14 1350 1863 C1321.29 1863 1292.58 1863 1263 1863 C1263 1923.06 1263 1983.12 1263 2045 C1233.3 2045 1203.6 2045 1173 2045 C1173 2073.71 1173 2102.42 1173 2132 C1114.59 2132 1056.18 2132 996 2132 C996 2163.35 996 2194.7 996 2227 C935.28 2227 874.56 2227 812 2227 C812 2252.74 812 2278.48 812 2305 C755.57 2305 699.14 2305 641 2305 C641 2333.71 641 2362.42 641 2392 C429.47 2392 217.94 2392 0 2392 C0 2363.29 0 2334.58 0 2305 C-56.43 2305 -112.86 2305 -171 2305 C-171 2279.26 -171 2253.52 -171 2227 C-231.39 2227 -291.78 2227 -354 2227 C-354 2195.65 -354 2164.3 -354 2132 C-412.74 2132 -471.48 2132 -532 2132 C-532 2103.29 -532 2074.58 -532 2045 C-561.37 2045 -590.74 2045 -621 2045 C-621 1984.94 -621 1924.88 -621 1863 C-650.04 1863 -679.08 1863 -709 1863 C-709 1803.93 -709 1744.86 -709 1684 C-732.76 1684 -756.52 1684 -781 1684 C-781 1628.23 -781 1572.46 -781 1515 C-815.65 1515 -850.3 1515 -886 1515 C-886 1308.09 -886 1101.18 -886 888 C-852.01 888 -818.02 888 -783 888 C-783 799.89 -783 711.78 -783 621 C-759.24 621 -735.48 621 -711 621 C-711 561.93 -711 502.86 -711 442 C-675.69 442 -640.38 442 -604 442 C-604 412.96 -604 383.92 -604 354 C-580.24 354 -556.48 354 -532 354 C-532 324.96 -532 295.92 -532 266 C-473.26 266 -414.52 266 -354 266 C-354 236.63 -354 207.26 -354 177 C-295.59 177 -237.18 177 -177 177 C-177 147.96 -177 118.92 -177 89 C-118.59 89 -60.18 89 0 89 C0 59.63 0 30.26 0 0 Z " fill="#000000" transform="translate(886,0)"/>
<path d="M0 0 C197.34 0 394.68 0 598 0 C598 26.07 598 52.14 598 79 C657.07 79 716.14 79 777 79 C777 103.09 777 127.18 777 152 C718.26 152 659.52 152 599 152 C599 181.37 599 210.74 599 241 C569.3 241 539.6 241 509 241 C509 277.96 509 314.92 509 353 C568.07 353 627.14 353 688 353 C688 372.8 688 392.6 688 413 C628.93 413 569.86 413 509 413 C509 479.33 509 545.66 509 614 C568.07 614 627.14 614 688 614 C688 666.8 688 719.6 688 774 C717.37 774 746.74 774 777 774 C777 919.2 777 1064.4 777 1214 C748.62 1214 720.24 1214 691 1214 C691 1265.81 691 1317.62 691 1371 C632.59 1371 574.18 1371 514 1371 C514 1400.37 514 1429.74 514 1460 C481.99 1460 449.98 1460 417 1460 C417 1500.26 417 1540.52 417 1582 C508.08 1582 599.16 1582 693 1582 C693 1601.14 693 1620.28 693 1640 C632.94 1640 572.88 1640 511 1640 C511 1671.02 511 1702.04 511 1734 C479.98 1734 448.96 1734 417 1734 C417 1762.05 417 1790.1 417 1819 C537.78 1819 658.56 1819 783 1819 C783 1849.36 783 1879.72 783 1911 C721.62 1911 660.24 1911 597 1911 C597 1941.03 597 1971.06 597 2002 C399.99 2002 202.98 2002 0 2002 C0 1971.97 0 1941.94 0 1911 C-61.38 1911 -122.76 1911 -186 1911 C-186 1887.9 -186 1864.8 -186 1841 C-66.21 1841 53.58 1841 177 1841 C177 1804.7 177 1768.4 177 1731 C119.25 1731 61.5 1731 2 1731 C2 1710.21 2 1689.42 2 1668 C88.46 1668 174.92 1668 264 1668 C264 1629.39 264 1590.78 264 1551 C234.63 1551 205.26 1551 175 1551 C175 1523.28 175 1495.56 175 1467 C143.98 1467 112.96 1467 81 1467 C81 1439.61 81 1412.22 81 1384 C23.25 1384 -34.5 1384 -94 1384 C-94 1321.96 -94 1259.92 -94 1196 C-122.38 1196 -150.76 1196 -180 1196 C-180 1057.4 -180 918.8 -180 776 C-150.63 776 -121.26 776 -91 776 C-91 720.89 -91 665.78 -91 609 C-33.58 609 23.84 609 83 609 C83 579.63 83 550.26 83 520 C171.11 520 259.22 520 350 520 C350 485.68 350 451.36 350 416 C320.63 416 291.26 416 261 416 C261 386.63 261 357.26 261 327 C203.25 327 145.5 327 86 327 C86 303.9 86 280.8 86 257 C173.12 257 260.24 257 350 257 C350 222.35 350 187.7 350 152 C321.62 152 293.24 152 264 152 C264 122.63 264 93.26 264 63 C198.33 63 132.66 63 65 63 C65 97.32 65 131.64 65 167 C-15.85 167 -96.7 167 -180 167 C-180 137.96 -180 108.92 -180 79 C-120.6 79 -61.2 79 0 79 C0 52.93 0 26.86 0 0 Z " fill="#FEFEFE" transform="translate(909,204)"/>
<path d="M0 0 C90.42 0 180.84 0 274 0 C274 27.39 274 54.78 274 83 C333.4 83 392.8 83 454 83 C454.33 141.41 454.66 199.82 455 260 C484.7 260.33 514.4 260.66 545 261 C545 349.77 545 438.54 545 530 C517.28 530 489.56 530 461 530 C461 530.66 461 531.32 461 532 C459.68 532 458.36 532 457 532 C457 590.74 457 649.48 457 710 C399.25 710 341.5 710 282 710 C282 738.38 282 766.76 282 796 C186.63 796 91.26 796 -7 796 C-7 767.62 -7 739.24 -7 710 C-65.08 710 -123.16 710 -183 710 C-183 650.6 -183 591.2 -183 530 C-212.04 530 -241.08 530 -271 530 C-271 440.9 -271 351.8 -271 260 C-240.97 260 -210.94 260 -180 260 C-180 201.59 -180 143.18 -180 83 C-120.6 83 -61.2 83 0 83 C0 55.61 0 28.22 0 0 Z " fill="#FE0000" transform="translate(1068,800)"/>
<path d="M0 0 C90.42 0 180.84 0 274 0 C274 27.39 274 54.78 274 83 C333.4 83 392.8 83 454 83 C454.33 141.41 454.66 199.82 455 260 C484.7 260.33 514.4 260.66 545 261 C545 349.77 545 438.54 545 530 C517.28 530 489.56 530 461 530 C461 530.66 461 531.32 461 532 C459.68 532 458.36 532 457 532 C457 590.74 457 649.48 457 710 C399.25 710 341.5 710 282 710 C282 738.38 282 766.76 282 796 C186.63 796 91.26 796 -7 796 C-7 767.62 -7 739.24 -7 710 C-65.08 710 -123.16 710 -183 710 C-183 650.6 -183 591.2 -183 530 C-212.04 530 -241.08 530 -271 530 C-271 440.9 -271 351.8 -271 260 C-240.97 260 -210.94 260 -180 260 C-180 201.59 -180 143.18 -180 83 C-120.6 83 -61.2 83 0 83 C0 55.61 0 28.22 0 0 Z M13 104 C13 129.08 13 154.16 13 180 C-16.04 180 -45.08 180 -75 180 C-75 213.33 -75 246.66 -75 281 C-103.71 281 -132.42 281 -162 281 C-162 356.57 -162 432.14 -162 510 C-132.63 510 -103.26 510 -73 510 C-73 540.69 -73 571.38 -73 603 C-44.62 603 -16.24 603 13 603 C13 630.39 13 657.78 13 686 C18.61339915 686.62371102 23.73724576 687.13207236 29.31307983 687.19618225 C29.99220196 687.20520378 30.67132409 687.21422531 31.37102568 687.22352022 C33.61890339 687.25229245 35.86679648 687.27472899 38.11474609 687.29711914 C39.74133751 687.31659817 41.36792438 687.3364606 42.99450684 687.35667419 C47.41151402 687.41037338 51.82856609 687.45841972 56.24565077 687.50525212 C60.94420489 687.55583418 65.64270609 687.61097075 70.34121704 687.66539001 C78.2920608 687.75675125 86.24293894 687.84442286 94.19384766 687.92993164 C102.21082298 688.01619031 110.22774336 688.106204 118.24462891 688.20043945 C168.45741886 688.80369155 168.45741886 688.80369155 218.67285156 689.05810547 C219.41745998 689.05909249 220.1620684 689.0600795 220.9292407 689.06109643 C235.61955415 689.07700436 250.30970012 689.03099219 265 689 C265 661.28 265 633.56 265 605 C293.38 605 321.76 605 351 605 C351 574.31 351 543.62 351 512 C379.05 512 407.1 512 436 512 C436 511.34 436 510.68 436 510 C437.32 510 438.64 510 440 510 C440 435.42 440 360.84 440 284 C411.62 284 383.24 284 354 284 C354 250.67 354 217.34 354 183 C324.63 183 295.26 183 265 183 C265 156.93 265 130.86 265 104 C181.84 104 98.68 104 13 104 Z " fill="#000000" transform="translate(1068,800)"/>
<path d="M0 0 C29.04 0 58.08 0 88 0 C88 81.84 88 163.68 88 248 C52.03 248 16.06 248 -21 248 C-21 394.52 -21 541.04 -21 692 C15.63 692 52.26 692 90 692 C90 775.49 90 858.98 90 945 C60.3 945 30.6 945 0 945 C0 884.94 0 824.88 0 763 C-30.03 763 -60.06 763 -91 763 C-91 569.95 -91 376.9 -91 178 C-60.97 178 -30.94 178 0 178 C0 119.26 0 60.52 0 0 Z " fill="#FEFEFE" transform="translate(288,729)"/>
<path d="M0 0 C27.72 0 55.44 0 84 0 C84 58.74 84 117.48 84 178 C114.03 178 144.06 178 175 178 C175 371.05 175 564.1 175 763 C144.97 763 114.94 763 84 763 C84 823.06 84 883.12 84 945 C54.63 945 25.26 945 -5 945 C-5 867.45 -5 789.9 -5 710 C30.31 709.67 65.62 709.34 102 709 C102.33 556.87 102.66 404.74 103 248 C69.01 248 35.02 248 0 248 C0 166.16 0 84.32 0 0 Z " fill="#FEFEFE" transform="translate(2043,729)"/>
<path d="M0 0 C93.39 0 186.78 0 283 0 C283 87.78 283 175.56 283 266 C189.61 266 96.22 266 0 266 C0 178.22 0 90.44 0 0 Z " fill="#000000" transform="translate(1064,1068)"/>
<path d="M0 0 C29.7 0 59.4 0 90 0 C90 59.07 90 118.14 90 179 C60.3 179 30.6 179 0 179 C0 119.93 0 60.86 0 0 Z " fill="#FEFEFE" transform="translate(1948,549)"/>
<path d="M0 0 C29.37 0 58.74 0 89 0 C89 59.07 89 118.14 89 179 C59.63 179 30.26 179 0 179 C0 119.93 0 60.86 0 0 Z " fill="#FEFEFE" transform="translate(377,549)"/>
<path d="M0 0 C58.74 0 117.48 0 178 0 C178 29.37 178 58.74 178 89 C119.26 89 60.52 89 0 89 C0 59.63 0 30.26 0 0 Z " fill="#FCFCFC" transform="translate(549,374)"/>
<path d="M0 0 C56.43 0 112.86 0 171 0 C171 28.38 171 56.76 171 86 C114.57 86 58.14 86 0 86 C0 57.62 0 29.24 0 0 Z " fill="#FDFDFD" transform="translate(1695,374)"/>
<path d="M0 0 C27.39 0 54.78 0 83 0 C83 55.11 83 110.22 83 167 C55.61 167 28.22 167 0 167 C0 111.89 0 56.78 0 0 Z " fill="#FDFDFD" transform="translate(1951,1680)"/>
<path d="M0 0 C27.06 0 54.12 0 82 0 C82 55.77 82 111.54 82 169 C54.94 169 27.88 169 0 169 C0 113.23 0 57.46 0 0 Z " fill="#FFFFFF" transform="translate(382,1677)"/>
<path d="M0 0 C57.75 0 115.5 0 175 0 C174.67 11.88 174.34 23.76 174 36 C173.67 49.2 173.34 62.4 173 76 C115.91 76 58.82 76 0 76 C0 50.92 0 25.84 0 0 Z " fill="#FEFEFE" transform="translate(1694,1945)"/>
<path d="M0 0 C50.16 0 100.32 0 152 0 C152 26.4 152 52.8 152 80 C101.84 80 51.68 80 0 80 C0 53.6 0 27.2 0 0 Z " fill="#FEFEFE" transform="translate(564,1941)"/>
<path d="M0 0 C31.35 0 62.7 0 95 0 C95 30.36 95 60.72 95 92 C63.65 92 32.3 92 0 92 C0 61.64 0 31.28 0 0 Z " fill="#FEFEFE" transform="translate(468,1848)"/>
<path d="M0 0 C26.07 0 52.14 0 79 0 C79 27.72 79 55.44 79 84 C52.93 84 26.86 84 0 84 C0 56.28 0 28.56 0 0 Z " fill="#FEFEFE" transform="translate(1868,463)"/>
<path d="M0 0 C26.07 0 52.14 0 79 0 C79 27.06 79 54.12 79 82 C52.93 82 26.86 82 0 82 C0 54.94 0 27.88 0 0 Z " fill="#FFFFFF" transform="translate(468,463)"/>
<path d="M0 0 C24.09 0 48.18 0 73 0 C73 29.04 73 58.08 73 88 C48.91 88 24.82 88 0 88 C0 58.96 0 29.92 0 0 Z " fill="#FFFFFF" transform="translate(1874,1852)"/>
</svg>
