<?xml version="1.0" encoding="UTF-8"?>
<svg xmlns="http://www.w3.org/2000/svg" xmlns:xlink="http://www.w3.org/1999/xlink" width="50px" height="px" viewBox="0 0 50 51" version="1.1">
<g id="surface1">
<path style=" stroke:none;fill-rule:evenodd;fill:rgb(100%,14.117647%,1.568627%);fill-opacity:1;" d="M 23.15625 0.523438 C 23.074219 0.8125 22.664062 2.285156 22.246094 3.796875 C 21.828125 5.3125 21.476562 6.554688 21.46875 6.558594 C 21.457031 6.566406 21.113281 6.652344 20.699219 6.75 C 19.839844 6.957031 18.253906 7.492188 17.4375 7.851562 C 17.128906 7.988281 16.835938 8.101562 16.785156 8.101562 C 16.738281 8.101562 15.609375 7.042969 14.28125 5.753906 L 11.863281 3.40625 L 11.554688 3.589844 C 11.386719 3.691406 10.589844 4.164062 9.78125 4.640625 L 8.308594 5.503906 L 8.65625 6.328125 C 8.84375 6.78125 9.488281 8.296875 10.082031 9.699219 L 11.167969 12.246094 L 10.4375 13.125 C 9.691406 14.019531 8.863281 15.191406 8.5625 15.773438 C 8.445312 16.003906 8.324219 16.101562 8.160156 16.101562 C 8.03125 16.101562 6.570312 15.898438 4.910156 15.648438 C 3.253906 15.402344 1.839844 15.199219 1.773438 15.199219 C 1.671875 15.199219 0.199219 18.882812 0.199219 19.128906 C 0.199219 19.164062 1.492188 20.066406 3.074219 21.136719 L 5.949219 23.078125 L 5.933594 25.464844 L 5.921875 27.851562 L 2.988281 29.617188 C 1.375 30.585938 0.0390625 31.429688 0.0195312 31.492188 C -0.0117188 31.582031 1.148438 34.949219 1.257812 35.082031 C 1.285156 35.117188 5.535156 34.945312 7.203125 34.839844 L 8.15625 34.78125 L 8.59375 35.515625 C 9.128906 36.417969 10.035156 37.683594 10.628906 38.347656 L 11.070312 38.84375 L 9.617188 41.777344 C 8.371094 44.292969 8.1875 44.726562 8.308594 44.84375 C 8.566406 45.09375 11.207031 46.898438 11.308594 46.898438 C 11.367188 46.898438 12.511719 45.996094 13.855469 44.890625 L 16.304688 42.878906 L 17.253906 43.296875 C 18.476562 43.832031 19.410156 44.152344 20.640625 44.453125 C 21.183594 44.585938 21.636719 44.707031 21.644531 44.722656 C 21.65625 44.738281 21.980469 46.144531 22.363281 47.851562 L 23.066406 50.949219 L 24.808594 50.976562 C 25.765625 50.988281 26.609375 50.960938 26.683594 50.914062 C 26.757812 50.867188 27.199219 49.460938 27.664062 47.789062 C 28.132812 46.117188 28.523438 44.75 28.53125 44.746094 C 28.542969 44.742188 29.132812 44.59375 29.84375 44.417969 C 30.871094 44.164062 32.257812 43.675781 33.449219 43.148438 C 33.503906 43.125 34.601562 44.089844 35.890625 45.296875 C 37.351562 46.671875 38.277344 47.464844 38.351562 47.421875 C 38.859375 47.121094 41.691406 44.925781 41.695312 44.828125 C 41.699219 44.761719 41.136719 43.425781 40.449219 41.855469 L 39.195312 39.003906 L 40.074219 37.914062 C 40.554688 37.3125 41.199219 36.417969 41.5 35.917969 C 41.9375 35.199219 42.089844 35.023438 42.25 35.054688 C 43 35.191406 48.519531 35.617188 48.59375 35.542969 C 48.714844 35.414062 50 32.238281 49.996094 32.078125 C 49.992188 32.007812 48.722656 31.089844 47.171875 30.039062 L 44.351562 28.128906 L 44.398438 27.339844 C 44.46875 26.226562 44.460938 24.808594 44.378906 23.699219 L 44.304688 22.75 L 47.0625 21.253906 C 48.582031 20.433594 49.84375 19.707031 49.867188 19.640625 C 49.914062 19.515625 48.933594 16.203125 48.816406 16.085938 C 48.757812 16.03125 46.140625 16.09375 43.023438 16.230469 L 42.097656 16.273438 L 41.597656 15.445312 C 41.066406 14.566406 40.191406 13.378906 39.648438 12.800781 L 39.320312 12.449219 L 40.460938 9.449219 C 41.085938 7.800781 41.597656 6.398438 41.601562 6.332031 C 41.601562 6.269531 41.003906 5.753906 40.273438 5.191406 C 39.546875 4.628906 38.878906 4.109375 38.792969 4.035156 C 38.65625 3.921875 38.308594 4.1875 36.15625 6.039062 L 33.671875 8.175781 L 32.613281 7.730469 C 31.453125 7.246094 29.898438 6.757812 29.167969 6.648438 C 28.726562 6.582031 28.695312 6.558594 28.589844 6.164062 C 28.527344 5.9375 28.152344 4.46875 27.753906 2.898438 L 27.03125 0.0507812 L 25.167969 0.0234375 L 23.308594 -0.00390625 L 23.15625 0.523438 "/>
</g>
</svg>
