<svg xmlns="http://www.w3.org/2000/svg" width="500" height="510" viewBox="0 0 500 510" version="1.1"><path d="M 231.573 5.228 C 230.750 8.128, 226.652 22.870, 222.467 37.988 C 218.281 53.107, 214.776 65.532, 214.678 65.599 C 214.580 65.666, 211.125 66.525, 207 67.506 C 198.379 69.558, 182.536 74.904, 174.356 78.521 C 171.273 79.885, 168.353 81, 167.866 81 C 167.380 81, 156.101 70.441, 142.803 57.535 L 118.624 34.069 115.562 35.909 C 113.878 36.920, 105.885 41.638, 97.799 46.392 L 83.099 55.036 86.549 63.268 C 88.447 67.796, 94.874 82.966, 100.831 96.980 L 111.662 122.459 104.357 131.237 C 96.914 140.179, 88.635 151.895, 85.621 157.750 C 84.453 160.020, 83.240 161, 81.599 161 C 80.307 161, 65.687 158.975, 49.110 156.500 C 32.533 154.025, 18.410 152, 17.726 152 C 16.736 152, 2 188.821, 2 191.294 C 2 191.639, 14.938 200.663, 30.750 211.348 L 59.500 230.775 59.353 254.637 L 59.207 278.499 29.885 296.153 C 13.759 305.863, 0.395 314.314, 0.189 314.933 C -0.105 315.816, 11.503 349.474, 12.570 350.832 C 12.842 351.178, 55.333 349.445, 72.038 348.407 L 81.575 347.815 85.929 355.157 C 91.277 364.177, 100.370 376.828, 106.277 383.469 L 110.697 388.439 96.177 417.762 C 83.705 442.949, 81.857 447.278, 83.078 448.452 C 85.654 450.929, 112.051 469, 113.093 469 C 113.654 469, 125.120 459.954, 138.574 448.899 L 163.035 428.798 172.539 432.966 C 184.781 438.335, 194.095 441.514, 206.387 444.521 C 211.824 445.851, 216.353 447.066, 216.451 447.220 C 216.550 447.374, 219.788 461.450, 223.649 478.500 L 230.667 509.500 248.084 509.747 C 257.663 509.884, 266.101 509.608, 266.836 509.135 C 267.571 508.663, 271.992 494.605, 276.660 477.897 C 281.328 461.189, 285.227 447.492, 285.324 447.459 C 285.421 447.426, 291.318 445.955, 298.429 444.191 C 308.713 441.640, 322.571 436.758, 334.500 431.485 C 335.050 431.241, 346.032 440.917, 358.904 452.985 C 373.532 466.700, 382.759 474.660, 383.513 474.214 C 388.595 471.204, 416.931 449.246, 416.961 448.293 C 416.983 447.629, 411.367 434.249, 404.483 418.560 L 391.966 390.033 400.733 379.134 C 405.555 373.140, 411.975 364.168, 415 359.197 C 419.387 351.987, 420.905 350.234, 422.500 350.530 C 429.993 351.923, 485.214 356.178, 485.937 355.418 C 487.153 354.140, 500.010 322.387, 499.956 320.796 C 499.932 320.083, 487.219 310.901, 471.706 300.391 L 443.500 281.282 444 273.391 C 444.706 262.255, 444.621 248.097, 443.782 237 L 443.064 227.500 470.639 212.552 C 485.806 204.330, 498.423 197.061, 498.677 196.399 C 499.151 195.164, 489.341 162.020, 488.157 160.853 C 487.590 160.295, 461.410 160.957, 430.233 162.318 L 420.967 162.723 415.962 154.437 C 410.655 145.651, 401.925 133.805, 396.480 128 L 393.197 124.500 404.595 94.500 C 410.864 78, 415.995 63.975, 415.997 63.333 C 415.998 62.691, 410.038 57.556, 402.750 51.922 C 395.462 46.288, 388.796 41.081, 387.935 40.352 C 386.578 39.201, 383.068 41.867, 361.544 60.392 L 336.719 81.758 326.117 77.317 C 314.546 72.469, 298.980 67.569, 291.662 66.472 C 287.249 65.810, 286.960 65.568, 285.893 61.638 C 285.275 59.362, 281.519 44.675, 277.547 29 L 270.323 0.500 251.696 0.228 L 233.069 -0.044 231.573 5.228" stroke="none" fill="#ff2404" fill-rule="evenodd"/><path d="" stroke="none" fill="#fc2404" fill-rule="evenodd"/></svg>